<svg width="20" height="20" viewBox="0 0 20 20" fill="none" xmlns="http://www.w3.org/2000/svg">
<path d="M17.6602 7.93308L15.2727 6.64017L12.3955 9.95104L15.3275 13.3304L17.6591 12.0685C18.6326 11.5423 19.1667 10.8055 19.1667 9.99917C19.1667 9.19284 18.6337 8.46029 17.6602 7.93308Z" fill="#3C4EF3"/>
<path d="M2.19126 20L10.9232 9.95188L2.30196 0.0128329C2.27457 0.0117635 2.24604 0 2.21865 0C0.89134 0 0 1.01059 0 2.51631V17.488C0.00228256 18.9798 0.88221 19.985 2.19126 20Z" fill="#3C4EF3"/>
<path d="M14.2693 6.10123L4.44519 0.784149L11.6604 9.10304L14.2693 6.10123Z" fill="#3C4EF3"/>
<path d="M11.6594 10.7979L4.25366 19.3221L14.3255 13.8713L11.6594 10.7979Z" fill="#3C4EF3"/>
</svg>
